<svg xmlns="http://www.w3.org/2000/svg" viewBox="0 0 1200 630" width="1200" height="630">
  <!-- Background -->
  <defs>
    <linearGradient id="bg" x1="0%" y1="0%" x2="100%" y2="100%">
      <stop offset="0%" style="stop-color:#1e40af;stop-opacity:1" />
      <stop offset="100%" style="stop-color:#0ea5e9;stop-opacity:1" />
    </linearGradient>
    <linearGradient id="card" x1="0%" y1="0%" x2="0%" y2="100%">
      <stop offset="0%" style="stop-color:#ffffff;stop-opacity:0.15" />
      <stop offset="100%" style="stop-color:#ffffff;stop-opacity:0.05" />
    </linearGradient>
  </defs>
  <rect width="1200" height="630" fill="url(#bg)" />

  <!-- Decorative grid lines -->
  <g stroke="#ffffff" stroke-opacity="0.06" stroke-width="1">
    <line x1="0" y1="105" x2="1200" y2="105" />
    <line x1="0" y1="210" x2="1200" y2="210" />
    <line x1="0" y1="315" x2="1200" y2="315" />
    <line x1="0" y1="420" x2="1200" y2="420" />
    <line x1="0" y1="525" x2="1200" y2="525" />
    <line x1="200" y1="0" x2="200" y2="630" />
    <line x1="400" y1="0" x2="400" y2="630" />
    <line x1="600" y1="0" x2="600" y2="630" />
    <line x1="800" y1="0" x2="800" y2="630" />
    <line x1="1000" y1="0" x2="1000" y2="630" />
  </g>

  <!-- Mock UI card (left panel) -->
  <rect x="80" y="120" width="200" height="390" rx="12" fill="url(#card)" stroke="#ffffff" stroke-opacity="0.2" stroke-width="1" />
  <rect x="100" y="148" width="160" height="10" rx="5" fill="#ffffff" fill-opacity="0.5" />
  <rect x="100" y="172" width="120" height="8" rx="4" fill="#ffffff" fill-opacity="0.3" />
  <rect x="100" y="200" width="160" height="32" rx="6" fill="#ffffff" fill-opacity="0.15" />
  <rect x="108" y="210" width="80" height="12" rx="3" fill="#ffffff" fill-opacity="0.5" />
  <rect x="100" y="244" width="160" height="32" rx="6" fill="#ffffff" fill-opacity="0.15" />
  <rect x="108" y="254" width="64" height="12" rx="3" fill="#ffffff" fill-opacity="0.5" />
  <rect x="100" y="288" width="160" height="32" rx="6" fill="#ffffff" fill-opacity="0.15" />
  <rect x="108" y="298" width="96" height="12" rx="3" fill="#ffffff" fill-opacity="0.5" />
  <rect x="100" y="340" width="160" height="4" rx="2" fill="#ffffff" fill-opacity="0.2" />
  <rect x="100" y="358" width="160" height="32" rx="6" fill="#3b82f6" fill-opacity="0.7" />
  <rect x="108" y="368" width="72" height="12" rx="3" fill="#ffffff" fill-opacity="0.9" />
  <rect x="100" y="402" width="160" height="32" rx="6" fill="#ffffff" fill-opacity="0.1" />
  <rect x="108" y="412" width="88" height="12" rx="3" fill="#ffffff" fill-opacity="0.5" />

  <!-- Mock canvas area -->
  <rect x="320" y="90" width="560" height="450" rx="16" fill="url(#card)" stroke="#ffffff" stroke-opacity="0.2" stroke-width="1" />
  <!-- Canvas toolbar -->
  <rect x="320" y="90" width="560" height="44" rx="16" fill="#ffffff" fill-opacity="0.1" />
  <circle cx="350" cy="112" r="6" fill="#ef4444" fill-opacity="0.7" />
  <circle cx="372" cy="112" r="6" fill="#f59e0b" fill-opacity="0.7" />
  <circle cx="394" cy="112" r="6" fill="#22c55e" fill-opacity="0.7" />
  <!-- Canvas content mockup -->
  <rect x="360" y="158" width="440" height="48" rx="8" fill="#ffffff" fill-opacity="0.15" />
  <rect x="376" y="174" width="200" height="16" rx="4" fill="#ffffff" fill-opacity="0.6" />
  <rect x="360" y="222" width="440" height="120" rx="8" fill="#ffffff" fill-opacity="0.08" />
  <rect x="376" y="238" width="120" height="10" rx="3" fill="#ffffff" fill-opacity="0.4" />
  <rect x="376" y="258" width="380" height="8" rx="3" fill="#ffffff" fill-opacity="0.25" />
  <rect x="376" y="274" width="300" height="8" rx="3" fill="#ffffff" fill-opacity="0.25" />
  <rect x="376" y="290" width="340" height="8" rx="3" fill="#ffffff" fill-opacity="0.25" />
  <rect x="360" y="358" width="200" height="44" rx="8" fill="#2563eb" fill-opacity="0.8" />
  <rect x="380" y="374" width="120" height="12" rx="3" fill="#ffffff" fill-opacity="0.9" />
  <rect x="576" y="358" width="224" height="44" rx="8" fill="#ffffff" fill-opacity="0.1" />
  <rect x="596" y="374" width="140" height="12" rx="3" fill="#ffffff" fill-opacity="0.4" />

  <!-- Mock right panel -->
  <rect x="920" y="120" width="200" height="390" rx="12" fill="url(#card)" stroke="#ffffff" stroke-opacity="0.2" stroke-width="1" />
  <rect x="940" y="148" width="100" height="10" rx="5" fill="#ffffff" fill-opacity="0.5" />
  <rect x="940" y="172" width="160" height="8" rx="4" fill="#ffffff" fill-opacity="0.3" />
  <rect x="940" y="192" width="160" height="28" rx="6" fill="#ffffff" fill-opacity="0.08" />
  <rect x="948" y="202" width="80" height="8" rx="3" fill="#ffffff" fill-opacity="0.4" />
  <rect x="940" y="232" width="160" height="28" rx="6" fill="#ffffff" fill-opacity="0.08" />
  <rect x="948" y="242" width="64" height="8" rx="3" fill="#ffffff" fill-opacity="0.4" />
  <rect x="940" y="272" width="160" height="28" rx="6" fill="#ffffff" fill-opacity="0.08" />
  <rect x="948" y="282" width="96" height="8" rx="3" fill="#ffffff" fill-opacity="0.4" />
  <rect x="940" y="312" width="160" height="28" rx="6" fill="#ffffff" fill-opacity="0.08" />
  <rect x="948" y="322" width="56" height="8" rx="3" fill="#ffffff" fill-opacity="0.4" />
  <!-- Color swatches -->
  <rect x="940" y="356" width="30" height="30" rx="6" fill="#ef4444" />
  <rect x="978" y="356" width="30" height="30" rx="6" fill="#3b82f6" />
  <rect x="1016" y="356" width="30" height="30" rx="6" fill="#22c55e" />
  <rect x="1054" y="356" width="30" height="30" rx="6" fill="#f59e0b" />
  <rect x="1092" y="356" width="8" height="30" rx="4" fill="#ffffff" fill-opacity="0.15" />

  <!-- Logo mark -->
  <rect x="540" y="490" width="48" height="48" rx="12" fill="#2563EB" />
  <text x="564" y="524" text-anchor="middle" font-family="system-ui, -apple-system, sans-serif" font-size="28" font-weight="bold" fill="white">C</text>

  <!-- Main title -->
  <text x="600" y="574" text-anchor="middle" font-family="system-ui, -apple-system, sans-serif" font-size="36" font-weight="800" fill="white" letter-spacing="-0.5">Click</text>
  <text x="600" y="606" text-anchor="middle" font-family="system-ui, -apple-system, sans-serif" font-size="18" fill="white" fill-opacity="0.75" letter-spacing="0.5">No-Code App Builder</text>
</svg>
